<?xml version="1.0" encoding="UTF-8" standalone="no"?>
<!DOCTYPE svg PUBLIC "-//W3C//DTD SVG 1.0//EN" "http://www.w3.org/TR/2001/PR-SVG-20010719/DTD/svg10.dtd">
<svg width="39cm" height="30cm" viewBox="-661 -157 778 596" xmlns="http://www.w3.org/2000/svg" xmlns:xlink="http://www.w3.org/1999/xlink">
  <rect style="fill: none; fill-opacity:0; stroke-width: 2; stroke-linejoin: round; stroke-dasharray: 4; stroke: #000000" x="-613.096" y="-121.067" width="334.5" height="243" rx="8" ry="8"/>
  <rect style="fill: none; fill-opacity:0; stroke-width: 2; stroke-linejoin: round; stroke-dasharray: 4; stroke: #000000" x="-611.776" y="207.732" width="339" height="226.058" rx="8" ry="8"/>
  <rect style="fill: none; fill-opacity:0; stroke-width: 2; stroke-linejoin: round; stroke-dasharray: 4; stroke: #000000" x="-221.5" y="-155.567" width="337" height="300" rx="8" ry="8"/>
  <rect style="fill: none; fill-opacity:0; stroke-width: 2; stroke-linejoin: round; stroke-dasharray: 4; stroke: #000000" x="-226.776" y="198.353" width="338" height="240" rx="8" ry="8"/>
  <g>
    <rect style="fill: #ffffff" x="-602.598" y="21.4328" width="312.5" height="86"/>
    <rect style="fill: none; fill-opacity:0; stroke-width: 2; stroke: #000000" x="-602.598" y="21.4328" width="312.5" height="86"/>
  </g>
  <text font-size="20.32" style="fill: #000000;text-anchor:middle;font-family:sans-serif;font-style:normal;font-weight:normal" x="-446.348" y="59.6328">
    <tspan x="-446.348" y="59.6328">Game</tspan>
  </text>
  <text font-size="12.8" style="fill: #000000;text-anchor:start;font-family:sans-serif;font-style:normal;font-weight:normal" x="-446.348" y="64.4328">
    <tspan x="-446.348" y="64.4328"></tspan>
  </text>
  <text font-size="12.8" style="fill: #000000;text-anchor:start;font-family:sans-serif;font-style:normal;font-weight:normal" x="-446.348" y="64.4328">
    <tspan x="-446.348" y="64.4328"></tspan>
  </text>
  <text font-size="12.8" style="fill: #000000;text-anchor:middle;font-family:sans-serif;font-style:normal;font-weight:normal" x="-446.348" y="76.3328">
    <tspan x="-446.348" y="76.3328">Runs the main game loop.</tspan>
  </text>
  <g>
    <rect style="fill: #ffffff" x="-209.208" y="24.4328" width="313" height="106"/>
    <rect style="fill: none; fill-opacity:0; stroke-width: 2; stroke: #000000" x="-209.208" y="24.4328" width="313" height="106"/>
  </g>
  <text font-size="20.32" style="fill: #000000;text-anchor:middle;font-family:sans-serif;font-style:normal;font-weight:normal" x="-52.7072" y="72.6328">
    <tspan x="-52.7072" y="72.6328">Map</tspan>
  </text>
  <text font-size="12.8" style="fill: #000000;text-anchor:middle;font-family:sans-serif;font-style:normal;font-weight:normal" x="-52.7072" y="89.3328">
    <tspan x="-52.7072" y="89.3328">Orchestrates the geography of levels.</tspan>
    <tspan x="-52.7072" y="105.333">Provides an interface to the map geometry.</tspan>
  </text>
  <g>
    <rect style="fill: #ffffff" x="-208.5" y="-140.567" width="312" height="108"/>
    <rect style="fill: none; fill-opacity:0; stroke-width: 2; stroke: #000000" x="-208.5" y="-140.567" width="312" height="108"/>
  </g>
  <text font-size="20.32" style="fill: #000000;text-anchor:middle;font-family:sans-serif;font-style:normal;font-weight:normal" x="-52.5" y="-91.3672">
    <tspan x="-52.5" y="-91.3672">Map Generation</tspan>
  </text>
  <text font-size="12.8" style="fill: #000000;text-anchor:middle;font-family:sans-serif;font-style:normal;font-weight:normal" x="-52.5" y="-74.6672">
    <tspan x="-52.5" y="-74.6672">Random and procedural map generators.</tspan>
    <tspan x="-52.5" y="-58.6672">A level editor.</tspan>
  </text>
  <g>
    <rect style="fill: #ffffff" x="-214.776" y="215.354" width="315" height="101"/>
    <rect style="fill: none; fill-opacity:0; stroke-width: 2; stroke: #000000" x="-214.776" y="215.354" width="315" height="101"/>
  </g>
  <text font-size="20.32" style="fill: #000000;text-anchor:middle;font-family:sans-serif;font-style:normal;font-weight:normal" x="-57.2756" y="261.054">
    <tspan x="-57.2756" y="261.054">Actors</tspan>
  </text>
  <text font-size="12.8" style="fill: #000000;text-anchor:middle;font-family:sans-serif;font-style:normal;font-weight:normal" x="-57.2756" y="277.754">
    <tspan x="-57.2756" y="277.754">Things that can "walk" around on the map.</tspan>
    <tspan x="-57.2756" y="293.754">This includes monsters and AI.</tspan>
  </text>
  <g>
    <rect style="fill: #ffffff" x="-213.976" y="357.954" width="314" height="67"/>
    <rect style="fill: none; fill-opacity:0; stroke-width: 2; stroke: #000000" x="-213.976" y="357.954" width="314" height="67"/>
  </g>
  <text font-size="20.32" style="fill: #000000;text-anchor:middle;font-family:sans-serif;font-style:normal;font-weight:normal" x="-56.9756" y="386.654">
    <tspan x="-56.9756" y="386.654">Players</tspan>
  </text>
  <text font-size="12.8" style="fill: #000000;text-anchor:middle;font-family:sans-serif;font-style:normal;font-weight:normal" x="-56.9756" y="403.354">
    <tspan x="-56.9756" y="403.354">Human and AI players.</tspan>
  </text>
  <g>
    <rect style="fill: #ffffff" x="-597.068" y="223.354" width="311" height="97"/>
    <rect style="fill: none; fill-opacity:0; stroke-width: 2; stroke: #000000" x="-597.068" y="223.354" width="311" height="97"/>
  </g>
  <text font-size="20.32" style="fill: #000000;text-anchor:middle;font-family:sans-serif;font-style:normal;font-weight:normal" x="-441.568" y="267.054">
    <tspan x="-441.568" y="267.054">Items</tspan>
  </text>
  <text font-size="12.8" style="fill: #000000;text-anchor:middle;font-family:sans-serif;font-style:normal;font-weight:normal" x="-441.568" y="283.754">
    <tspan x="-441.568" y="283.754">Bombs, treasures, and other items</tspan>
    <tspan x="-441.568" y="299.754">that can be found on the map.</tspan>
  </text>
  <g>
    <polyline style="fill: none; fill-opacity:0; stroke-width: 2; stroke: #000000" points="-57.276,334.59 -57.276,344.65 -56.976,344.65 -56.976,356.946 "/>
    <polygon style="fill: #ffffff" points="-49.276,334.59 -57.276,318.59 -65.276,334.59 "/>
    <polygon style="fill: none; fill-opacity:0; stroke-width: 2; stroke: #000000" points="-49.276,334.59 -57.276,318.59 -65.276,334.59 "/>
  </g>
  <g>
    <rect style="fill: #ffffff" x="-598.776" y="357.86" width="314" height="61.8815"/>
    <rect style="fill: none; fill-opacity:0; stroke-width: 2; stroke: #000000" x="-598.776" y="357.86" width="314" height="61.8815"/>
  </g>
  <text font-size="20.32" style="fill: #000000;text-anchor:middle;font-family:sans-serif;font-style:normal;font-weight:normal" x="-441.776" y="384">
    <tspan x="-441.776" y="384">Store</tspan>
  </text>
  <text font-size="12.8" style="fill: #000000;text-anchor:middle;font-family:sans-serif;font-style:normal;font-weight:normal" x="-441.776" y="400.7">
    <tspan x="-441.776" y="400.7">Allows players to buy and sell items.</tspan>
  </text>
  <g>
    <path style="fill: none; fill-opacity:0; stroke-width: 2; stroke-dasharray: 8; stroke: #000000" d="M -36.5046,214.358 A 124.749,124.749 0 0 0 -48.0378,138.951"/>
    <polygon style="fill: #000000" points="-51.5568,132.35 -42.1246,138.353 -47.6983,138.782 -50.6997,143.498 "/>
    <polygon style="fill: none; fill-opacity:0; stroke-width: 2; stroke: #000000" points="-51.5568,132.35 -42.1246,138.353 -47.6983,138.782 -50.6997,143.498 "/>
  </g>
  <g>
    <line style="fill: none; fill-opacity:0; stroke-width: 2; stroke: #000000" x1="-441.688" y1="321.345" x2="-441.752" y2="348.124"/>
    <polygon style="fill: #000000" points="-441.771,355.624 -446.746,345.612 -441.752,348.124 -436.746,345.636 "/>
    <polygon style="fill: none; fill-opacity:0; stroke-width: 2; stroke: #000000" points="-441.771,355.624 -446.746,345.612 -441.752,348.124 -436.746,345.636 "/>
  </g>
  <g>
    <line style="fill: none; fill-opacity:0; stroke-width: 2; stroke: #000000" x1="-274.118" y1="389.957" x2="-224.634" y2="390.298"/>
    <polygon style="fill: #000000" points="-281.618,389.905 -271.584,384.974 -274.118,389.957 -271.653,394.974 "/>
    <polygon style="fill: none; fill-opacity:0; stroke-width: 2; stroke: #000000" points="-281.618,389.905 -271.584,384.974 -274.118,389.957 -271.653,394.974 "/>
    <polygon style="fill: #000000" points="-217.134,390.35 -227.168,395.281 -224.634,390.298 -227.099,385.281 "/>
    <polygon style="fill: none; fill-opacity:0; stroke-width: 2; stroke: #000000" points="-217.134,390.35 -227.168,395.281 -224.634,390.298 -227.099,385.281 "/>
  </g>
  <g>
    <line style="fill: none; fill-opacity:0; stroke-width: 2; stroke: #000000" x1="-52.5697" y1="-31.5936" x2="-52.6272" y2="13.7041"/>
    <polygon style="fill: #000000" points="-52.6367,21.2041 -57.624,11.1977 -52.6272,13.7041 -47.624,11.2104 "/>
    <polygon style="fill: none; fill-opacity:0; stroke-width: 2; stroke: #000000" points="-52.6367,21.2041 -57.624,11.1977 -52.6272,13.7041 -47.624,11.2104 "/>
  </g>
  <g>
    <path style="fill: none; fill-opacity:0; stroke-width: 2; stroke-dasharray: 8; stroke: #000000" d="M -302.566,222.355 A 1191.33,1191.33 0 0 0 -138.627,136.633"/>
    <polygon style="fill: #000000" points="-132.282,132.634 -138.025,142.227 -138.606,136.667 -143.402,133.795 "/>
    <polygon style="fill: none; fill-opacity:0; stroke-width: 2; stroke: #000000" points="-132.282,132.634 -138.025,142.227 -138.606,136.667 -143.402,133.795 "/>
  </g>
  <g>
    <rect style="fill: #ffffff" x="-602.598" y="-108.067" width="311.5" height="85.5"/>
    <rect style="fill: none; fill-opacity:0; stroke-width: 2; stroke: #000000" x="-602.598" y="-108.067" width="311.5" height="85.5"/>
  </g>
  <text font-size="20.32" style="fill: #000000;text-anchor:middle;font-family:sans-serif;font-style:normal;font-weight:normal" x="-446.848" y="-70.1172">
    <tspan x="-446.848" y="-70.1172">Window</tspan>
  </text>
  <text font-size="12.8" style="fill: #000000;text-anchor:middle;font-family:sans-serif;font-style:normal;font-weight:normal" x="-446.848" y="-53.4172">
    <tspan x="-446.848" y="-53.4172">Handles rendering and user input.</tspan>
  </text>
  <g>
    <line style="fill: none; fill-opacity:0; stroke-width: 2; stroke: #000000" x1="-446.642" y1="-11.827" x2="-446.555" y2="10.6892"/>
    <polygon style="fill: #000000" points="-446.671,-19.327 -441.632,-9.34629 -446.642,-11.827 -451.632,-9.30776 "/>
    <polygon style="fill: none; fill-opacity:0; stroke-width: 2; stroke: #000000" points="-446.671,-19.327 -441.632,-9.34629 -446.642,-11.827 -451.632,-9.30776 "/>
    <polygon style="fill: #000000" points="-446.526,18.1891 -451.565,8.20848 -446.555,10.6892 -441.565,8.16994 "/>
    <polygon style="fill: none; fill-opacity:0; stroke-width: 2; stroke: #000000" points="-446.526,18.1891 -451.565,8.20848 -446.555,10.6892 -441.565,8.16994 "/>
  </g>
  <g>
    <line style="fill: none; fill-opacity:0; stroke-width: 2; stroke: #000000" x1="-289.093" y1="69.6262" x2="-219.904" y2="71.9111"/>
    <polygon style="fill: #000000" points="-212.408,72.1587 -222.568,76.8259 -219.904,71.9111 -222.238,66.8313 "/>
    <polygon style="fill: none; fill-opacity:0; stroke-width: 2; stroke: #000000" points="-212.408,72.1587 -222.568,76.8259 -219.904,71.9111 -222.238,66.8313 "/>
  </g>
  <g>
    <line style="fill: none; fill-opacity:0; stroke-width: 2; stroke: #000000" x1="-445.334" y1="108.414" x2="-442.933" y2="212.633"/>
    <polygon style="fill: #000000" points="-442.76,220.131 -447.989,210.248 -442.933,212.633 -437.992,210.018 "/>
    <polygon style="fill: none; fill-opacity:0; stroke-width: 2; stroke: #000000" points="-442.76,220.131 -447.989,210.248 -442.933,212.633 -437.992,210.018 "/>
  </g>
  <g>
    <line style="fill: none; fill-opacity:0; stroke-width: 2; stroke: #000000" x1="-361.381" y1="108.42" x2="-165.399" y2="209.879"/>
    <polygon style="fill: #000000" points="-158.738,213.327 -169.917,213.17 -165.399,209.879 -165.32,204.29 "/>
    <polygon style="fill: none; fill-opacity:0; stroke-width: 2; stroke: #000000" points="-158.738,213.327 -169.917,213.17 -165.399,209.879 -165.32,204.29 "/>
  </g>
  <g>
    <path style="fill: none; fill-opacity:0; stroke-width: 2; stroke: #000000" d="M -603.591,101.414 A 168.862,168.862 0 0 0 -606.576,350.408"/>
    <polygon style="fill: #000000" points="-601.013,355.422 -611.892,352.846 -606.768,350.613 -605.48,345.173 "/>
    <polygon style="fill: none; fill-opacity:0; stroke-width: 2; stroke: #000000" points="-601.013,355.422 -611.892,352.846 -606.768,350.613 -605.48,345.173 "/>
  </g>
</svg>
