<?xml version="1.0" encoding="UTF-8" standalone="no"?>
<!DOCTYPE svg PUBLIC "-//W3C//DTD SVG 1.0//EN" "http://www.w3.org/TR/2001/PR-SVG-20010719/DTD/svg10.dtd">
<svg width="80cm" height="51cm" viewBox="105 102 1599 1020" xmlns="http://www.w3.org/2000/svg" xmlns:xlink="http://www.w3.org/1999/xlink">
  <g>
    <rect style="fill: #ffffff" x="787" y="478.5" width="177.15" height="54"/>
    <rect style="fill: none; fill-opacity:0; stroke-width: 2; stroke: #000000" x="787" y="478.5" width="177.15" height="54"/>
    <text font-size="12.7998" style="fill: #000000;text-anchor:middle;font-family:sans-serif;font-style:normal;font-weight:normal" x="875.575" y="501.4">
      <tspan x="875.575" y="501.4">Game</tspan>
      <tspan x="875.575" y="517.4">-the main loop and such</tspan>
    </text>
  </g>
  <g>
    <rect style="fill: #ffffff" x="754.775" y="292.2" width="240.05" height="54"/>
    <rect style="fill: none; fill-opacity:0; stroke-width: 2; stroke: #000000" x="754.775" y="292.2" width="240.05" height="54"/>
    <text font-size="12.7998" style="fill: #000000;text-anchor:middle;font-family:sans-serif;font-style:normal;font-weight:normal" x="874.8" y="315.1">
      <tspan x="874.8" y="315.1">Window</tspan>
      <tspan x="874.8" y="331.1">-handles rendering and user input</tspan>
    </text>
  </g>
  <g>
    <line style="fill: none; fill-opacity:0; stroke-width: 2; stroke: #000000" x1="875.44" y1="477.809" x2="874.847" y2="355.936"/>
    <polygon style="fill: #000000" points="874.811,348.436 879.859,358.412 874.847,355.936 869.86,358.46 "/>
    <polygon style="fill: none; fill-opacity:0; stroke-width: 2; stroke: #000000" points="874.811,348.436 879.859,358.412 874.847,355.936 869.86,358.46 "/>
  </g>
  <g>
    <rect style="fill: #ffffff" x="1240.93" y="574.258" width="296.6" height="88"/>
    <rect style="fill: none; fill-opacity:0; stroke-width: 2; stroke: #000000" x="1240.93" y="574.258" width="296.6" height="88"/>
    <text font-size="12.7998" style="fill: #000000;text-anchor:middle;font-family:sans-serif;font-style:normal;font-weight:normal" x="1389.23" y="606.158">
      <tspan x="1389.23" y="606.158">Map</tspan>
      <tspan x="1389.23" y="622.158">-the current map, contains terrain, players</tspan>
      <tspan x="1389.23" y="638.158">an other such features</tspan>
    </text>
  </g>
  <g>
    <line style="fill: none; fill-opacity:0; stroke-width: 2; stroke: #000000" x1="964.15" y1="505.5" x2="1231.91" y2="614.585"/>
    <polygon style="fill: #000000" points="1238.85,617.415 1227.71,618.272 1231.91,614.585 1231.48,609.011 "/>
    <polygon style="fill: none; fill-opacity:0; stroke-width: 2; stroke: #000000" points="1238.85,617.415 1227.71,618.272 1231.91,614.585 1231.48,609.011 "/>
  </g>
  <g>
    <line style="fill: none; fill-opacity:0; stroke-width: 2; stroke: #000000" x1="964.15" y1="505.5" x2="1252.23" y2="460.753"/>
    <polygon style="fill: #000000" points="1259.64,459.601 1250.53,466.077 1252.23,460.753 1248.99,456.196 "/>
    <polygon style="fill: none; fill-opacity:0; stroke-width: 2; stroke: #000000" points="1259.64,459.601 1250.53,466.077 1252.23,460.753 1248.99,456.196 "/>
  </g>
  <g>
    <rect style="fill: #ffffff" x="1261.85" y="417.258" width="234.35" height="84"/>
    <rect style="fill: none; fill-opacity:0; stroke-width: 2; stroke: #000000" x="1261.85" y="417.258" width="234.35" height="84"/>
    <text font-size="12.7998" style="fill: #000000;text-anchor:middle;font-family:sans-serif;font-style:normal;font-weight:normal" x="1379.03" y="447.158">
      <tspan x="1379.03" y="447.158">MapGenerator</tspan>
      <tspan x="1379.03" y="463.158">-generates maps or allows</tspan>
      <tspan x="1379.03" y="479.158">user to use editor to create them</tspan>
    </text>
  </g>
  <g>
    <line style="fill: none; fill-opacity:0; stroke-width: 2; stroke-dasharray: 4; stroke: #000000" x1="1382.84" y1="502.215" x2="1388.37" y2="564.56"/>
    <polygon style="fill: #000000" points="1389.03,572.031 1383.16,562.512 1388.37,564.56 1393.12,561.628 "/>
    <polygon style="fill: none; fill-opacity:0; stroke-width: 2; stroke: #000000" points="1389.03,572.031 1383.16,562.512 1388.37,564.56 1393.12,561.628 "/>
  </g>
  <text font-size="12.7998" style="fill: #000000;text-anchor:start;font-family:sans-serif;font-style:normal;font-weight:normal" x="1391.53" y="537.258">
    <tspan x="1391.53" y="537.258">Creates</tspan>
  </text>
  <text font-size="12.7998" style="fill: #000000;text-anchor:start;font-family:sans-serif;font-style:normal;font-weight:normal" x="889" y="410">
    <tspan x="889" y="410">Has</tspan>
  </text>
  <text font-size="12.7998" style="fill: #000000;text-anchor:start;font-family:sans-serif;font-style:normal;font-weight:normal" x="1096.43" y="553.625">
    <tspan x="1096.43" y="553.625">Contains these</tspan>
  </text>
  <text font-size="12.7998" style="fill: #000000;text-anchor:start;font-family:sans-serif;font-style:normal;font-weight:normal" x="1137.53" y="559.258">
    <tspan x="1137.53" y="559.258"></tspan>
  </text>
  <text font-size="12.7998" style="fill: #000000;text-anchor:start;font-family:sans-serif;font-style:normal;font-weight:normal" x="1106.17" y="478.258">
    <tspan x="1106.17" y="478.258">Has</tspan>
  </text>
  <g>
    <rect style="fill: #ffffff" x="1177.58" y="232.258" width="163.9" height="65"/>
    <rect style="fill: none; fill-opacity:0; stroke-width: 2; stroke: #000000" x="1177.58" y="232.258" width="163.9" height="65"/>
    <text font-size="12.7998" style="fill: #000000;text-anchor:middle;font-family:sans-serif;font-style:normal;font-weight:normal" x="1259.53" y="260.658">
      <tspan x="1259.53" y="260.658">Editor</tspan>
      <tspan x="1259.53" y="276.658">-user generated maps</tspan>
    </text>
  </g>
  <g>
    <rect style="fill: #ffffff" x="1382.95" y="233.258" width="184.15" height="60"/>
    <rect style="fill: none; fill-opacity:0; stroke-width: 2; stroke: #000000" x="1382.95" y="233.258" width="184.15" height="60"/>
    <text font-size="12.7998" style="fill: #000000;text-anchor:middle;font-family:sans-serif;font-style:normal;font-weight:normal" x="1475.03" y="259.158">
      <tspan x="1475.03" y="259.158">RandomMapGenerator</tspan>
      <tspan x="1475.03" y="275.158">-generates random maps</tspan>
    </text>
  </g>
  <g>
    <line style="fill: none; fill-opacity:0; stroke-width: 2; stroke: #000000" x1="1347.31" y1="416.257" x2="1265.3" y2="305.093"/>
    <polygon style="fill: #000000" points="1260.85,299.058 1270.81,304.137 1265.3,305.093 1262.77,310.073 "/>
    <polygon style="fill: none; fill-opacity:0; stroke-width: 2; stroke: #000000" points="1260.85,299.058 1270.81,304.137 1265.3,305.093 1262.77,310.073 "/>
  </g>
  <g>
    <line style="fill: none; fill-opacity:0; stroke-width: 2; stroke: #000000" x1="1437.61" y1="417.258" x2="1472.21" y2="302.579"/>
    <polygon style="fill: #000000" points="1474.38,295.399 1476.28,306.417 1472.21,302.579 1466.7,303.529 "/>
    <polygon style="fill: none; fill-opacity:0; stroke-width: 2; stroke: #000000" points="1474.38,295.399 1476.28,306.417 1472.21,302.579 1466.7,303.529 "/>
  </g>
  <text font-size="12.7998" style="fill: #000000;text-anchor:start;font-family:sans-serif;font-style:normal;font-weight:normal" x="1302.53" y="335.258">
    <tspan x="1302.53" y="335.258">Has</tspan>
  </text>
  <text font-size="12.7998" style="fill: #000000;text-anchor:start;font-family:sans-serif;font-style:normal;font-weight:normal" x="1472.53" y="349.258">
    <tspan x="1472.53" y="349.258">Has</tspan>
  </text>
  <g>
    <rect style="fill: #ffffff" x="1358.48" y="103.758" width="258.1" height="54"/>
    <rect style="fill: none; fill-opacity:0; stroke-width: 2; stroke: #000000" x="1358.48" y="103.758" width="258.1" height="54"/>
    <text font-size="12.7998" style="fill: #000000;text-anchor:middle;font-family:sans-serif;font-style:normal;font-weight:normal" x="1487.53" y="126.658">
      <tspan x="1487.53" y="126.658">ProceduralMapGenerator</tspan>
      <tspan x="1487.53" y="142.658">-used for procedural map generation</tspan>
    </text>
  </g>
  <g>
    <line style="fill: none; fill-opacity:0; stroke-width: 2; stroke: #000000" x1="1475.03" y1="233.258" x2="1485.94" y2="167.364"/>
    <polygon style="fill: #000000" points="1487.16,159.964 1490.46,170.647 1485.94,167.364 1480.59,169.013 "/>
    <polygon style="fill: none; fill-opacity:0; stroke-width: 2; stroke: #000000" points="1487.16,159.964 1490.46,170.647 1485.94,167.364 1480.59,169.013 "/>
  </g>
  <text font-size="12.7998" style="fill: #000000;text-anchor:start;font-family:sans-serif;font-style:normal;font-weight:normal" x="1491.53" y="198.258">
    <tspan x="1491.53" y="198.258">ProceduralMapGenerator inherits</tspan>
    <tspan x="1491.53" y="214.258">RandomMapGenerator</tspan>
  </text>
  <g>
    <rect style="fill: #ffffff" x="724.925" y="736.75" width="267.15" height="54"/>
    <rect style="fill: none; fill-opacity:0; stroke-width: 2; stroke: #000000" x="724.925" y="736.75" width="267.15" height="54"/>
    <text font-size="12.7998" style="fill: #000000;text-anchor:middle;font-family:sans-serif;font-style:normal;font-weight:normal" x="858.5" y="759.65">
      <tspan x="858.5" y="759.65">Player</tspan>
      <tspan x="858.5" y="775.65">-interfaces player actions to the game</tspan>
    </text>
  </g>
  <g>
    <line style="fill: none; fill-opacity:0; stroke-width: 2; stroke: #000000" x1="866.5" y1="642.25" x2="859.321" y2="727.049"/>
    <polygon style="fill: #000000" points="858.689,734.522 854.55,724.136 859.321,727.049 864.514,724.979 "/>
    <polygon style="fill: none; fill-opacity:0; stroke-width: 2; stroke: #000000" points="858.689,734.522 854.55,724.136 859.321,727.049 864.514,724.979 "/>
  </g>
  <text font-size="12.7998" style="fill: #000000;text-anchor:start;font-family:sans-serif;font-style:normal;font-weight:normal" x="873" y="692.25">
    <tspan x="873" y="692.25">Player inherits actor</tspan>
  </text>
  <g>
    <rect style="fill: #ffffff" x="642" y="865.25" width="216.4" height="60.75"/>
    <rect style="fill: none; fill-opacity:0; stroke-width: 2; stroke: #000000" x="642" y="865.25" width="216.4" height="60.75"/>
    <text font-size="12.7998" style="fill: #000000;text-anchor:middle;font-family:sans-serif;font-style:normal;font-weight:normal" x="750.2" y="891.525">
      <tspan x="750.2" y="891.525">HumanPlayer</tspan>
      <tspan x="750.2" y="907.525">-player that acts on user input</tspan>
    </text>
  </g>
  <g>
    <rect style="fill: #ffffff" x="926" y="861.25" width="257" height="60.75"/>
    <rect style="fill: none; fill-opacity:0; stroke-width: 2; stroke: #000000" x="926" y="861.25" width="257" height="60.75"/>
    <text font-size="12.7998" style="fill: #000000;text-anchor:middle;font-family:sans-serif;font-style:normal;font-weight:normal" x="1054.5" y="887.525">
      <tspan x="1054.5" y="887.525">AIPlayer</tspan>
      <tspan x="1054.5" y="903.525">-player that behaves according to AI</tspan>
    </text>
  </g>
  <g>
    <line style="fill: none; fill-opacity:0; stroke-width: 2; stroke: #000000" x1="858.5" y1="790.75" x2="758.221" y2="859.732"/>
    <polygon style="fill: #000000" points="752.042,863.983 757.447,854.196 758.221,859.732 763.115,862.435 "/>
    <polygon style="fill: none; fill-opacity:0; stroke-width: 2; stroke: #000000" points="752.042,863.983 757.447,854.196 758.221,859.732 763.115,862.435 "/>
  </g>
  <g>
    <line style="fill: none; fill-opacity:0; stroke-width: 2; stroke: #000000" x1="858.5" y1="790.75" x2="1045.34" y2="857.955"/>
    <polygon style="fill: #000000" points="1052.4,860.493 1041.29,861.813 1045.34,857.955 1044.68,852.404 "/>
    <polygon style="fill: none; fill-opacity:0; stroke-width: 2; stroke: #000000" points="1052.4,860.493 1041.29,861.813 1045.34,857.955 1044.68,852.404 "/>
  </g>
  <text font-size="12.7998" style="fill: #000000;text-anchor:start;font-family:sans-serif;font-style:normal;font-weight:normal" x="732" y="818.25">
    <tspan x="732" y="818.25">Can be</tspan>
  </text>
  <text font-size="12.7998" style="fill: #000000;text-anchor:start;font-family:sans-serif;font-style:normal;font-weight:normal" x="968" y="818.25">
    <tspan x="968" y="818.25">Can be</tspan>
  </text>
  <g>
    <rect style="fill: #ffffff" x="709.95" y="588.25" width="313.1" height="54"/>
    <rect style="fill: none; fill-opacity:0; stroke-width: 2; stroke: #000000" x="709.95" y="588.25" width="313.1" height="54"/>
    <text font-size="12.7998" style="fill: #000000;text-anchor:middle;font-family:sans-serif;font-style:normal;font-weight:normal" x="866.5" y="611.15">
      <tspan x="866.5" y="611.15">Actors</tspan>
      <tspan x="866.5" y="627.15">-players and simple AI enemies ("monsters")</tspan>
    </text>
  </g>
  <g>
    <line style="fill: none; fill-opacity:0; stroke-width: 2; stroke: #000000" x1="875.575" y1="532.5" x2="868.064" y2="578.64"/>
    <polygon style="fill: #000000" points="866.859,586.043 863.531,575.37 868.064,578.64 873.401,576.976 "/>
    <polygon style="fill: none; fill-opacity:0; stroke-width: 2; stroke: #000000" points="866.859,586.043 863.531,575.37 868.064,578.64 873.401,576.976 "/>
  </g>
  <text font-size="12.7998" style="fill: #000000;text-anchor:start;font-family:sans-serif;font-style:normal;font-weight:normal" x="878" y="556.25">
    <tspan x="878" y="556.25">Some amount of actors</tspan>
    <tspan x="878" y="572.25">in selected game</tspan>
  </text>
  <g>
    <line style="fill: none; fill-opacity:0; stroke-width: 2; stroke: #000000" x1="866.5" y1="642.25" x2="576.048" y2="757.655"/>
    <polygon style="fill: #000000" points="569.078,760.424 576.525,752.085 576.048,757.655 580.218,761.378 "/>
    <polygon style="fill: none; fill-opacity:0; stroke-width: 2; stroke: #000000" points="569.078,760.424 576.525,752.085 576.048,757.655 580.218,761.378 "/>
  </g>
  <g>
    <rect style="fill: #ffffff" x="454.9" y="761.25" width="224.2" height="70"/>
    <rect style="fill: none; fill-opacity:0; stroke-width: 2; stroke: #000000" x="454.9" y="761.25" width="224.2" height="70"/>
    <text font-size="12.7998" style="fill: #000000;text-anchor:middle;font-family:sans-serif;font-style:normal;font-weight:normal" x="567" y="784.15">
      <tspan x="567" y="784.15">Monsters</tspan>
      <tspan x="567" y="800.15">-simple AI enemies (or allies,</tspan>
      <tspan x="567" y="816.15">depending on how deep we go)</tspan>
    </text>
  </g>
  <text font-size="12.7998" style="fill: #000000;text-anchor:start;font-family:sans-serif;font-style:normal;font-weight:normal" x="601" y="685.25">
    <tspan x="601" y="685.25">Monster inherits actor</tspan>
  </text>
  <g>
    <rect style="fill: #ffffff" x="684" y="1010.25" width="267" height="54"/>
    <rect style="fill: none; fill-opacity:0; stroke-width: 2; stroke: #000000" x="684" y="1010.25" width="267" height="54"/>
    <text font-size="12.7998" style="fill: #000000;text-anchor:middle;font-family:sans-serif;font-style:normal;font-weight:normal" x="817.5" y="1033.15">
      <tspan x="817.5" y="1033.15">AI</tspan>
      <tspan x="817.5" y="1049.15">-various AI things</tspan>
    </text>
  </g>
  <g>
    <path style="fill: none; fill-opacity:0; stroke-width: 2; stroke: #000000" d="M 567,831.25 A 253.948,253.948 0 0 0 807.77,1010.36"/>
    <polygon style="fill: #000000" points="815.265,1010.32 805.424,1015.62 807.769,1010.55 805.116,1005.63 "/>
    <polygon style="fill: none; fill-opacity:0; stroke-width: 2; stroke: #000000" points="815.265,1010.32 805.424,1015.62 807.769,1010.55 805.116,1005.63 "/>
  </g>
  <g>
    <path style="fill: none; fill-opacity:0; stroke-width: 2; stroke: #000000" d="M 1054.5,922 A 931.548,931.548 0 0 0 826.102,1005.69"/>
    <polygon style="fill: #000000" points="819.47,1009.19 825.917,1000.06 826.078,1005.65 830.646,1008.87 "/>
    <polygon style="fill: none; fill-opacity:0; stroke-width: 2; stroke: #000000" points="819.47,1009.19 825.917,1000.06 826.078,1005.65 830.646,1008.87 "/>
  </g>
  <text font-size="12.7998" style="fill: #000000;text-anchor:start;font-family:sans-serif;font-style:normal;font-weight:normal" x="560" y="908.25">
    <tspan x="560" y="908.25">Has</tspan>
  </text>
  <text font-size="12.7998" style="fill: #000000;text-anchor:start;font-family:sans-serif;font-style:normal;font-weight:normal" x="963" y="964.25">
    <tspan x="963" y="964.25">Has</tspan>
  </text>
  <g>
    <path style="fill: none; fill-opacity:0; stroke-width: 2; stroke-dasharray: 4; stroke: #000000" d="M 1023.05,642.25 A 485.775,485.775 0 0 0 1379.99,665.343"/>
    <polygon style="fill: #000000" points="1387.11,662.988 1379.29,670.978 1380.02,665.436 1376.03,661.526 "/>
    <polygon style="fill: none; fill-opacity:0; stroke-width: 2; stroke: #000000" points="1387.11,662.988 1379.29,670.978 1380.02,665.436 1376.03,661.526 "/>
  </g>
  <text font-size="12.7998" style="fill: #000000;text-anchor:start;font-family:sans-serif;font-style:normal;font-weight:normal" x="1342.53" y="744.508">
    <tspan x="1342.53" y="744.508"></tspan>
  </text>
  <text font-size="12.7998" style="fill: #000000;text-anchor:start;font-family:sans-serif;font-style:normal;font-weight:normal" x="1196.7" y="706.06">
    <tspan x="1196.7" y="706.06">Map contains actors</tspan>
    <tspan x="1196.7" y="722.06">during games</tspan>
  </text>
  <g>
    <rect style="fill: #ffffff" x="422.125" y="435" width="189.75" height="54"/>
    <rect style="fill: none; fill-opacity:0; stroke-width: 2; stroke: #000000" x="422.125" y="435" width="189.75" height="54"/>
    <text font-size="12.7998" style="fill: #000000;text-anchor:middle;font-family:sans-serif;font-style:normal;font-weight:normal" x="517" y="457.9">
      <tspan x="517" y="457.9">Store</tspan>
      <tspan x="517" y="473.9">-to buy stuff during game </tspan>
    </text>
  </g>
  <g>
    <line style="fill: none; fill-opacity:0; stroke-width: 2; stroke: #000000" x1="787" y1="505.5" x2="621.324" y2="464.347"/>
    <polygon style="fill: #000000" points="614.045,462.539 624.956,460.097 621.324,464.347 622.545,469.802 "/>
    <polygon style="fill: none; fill-opacity:0; stroke-width: 2; stroke: #000000" points="614.045,462.539 624.956,460.097 621.324,464.347 622.545,469.802 "/>
  </g>
  <text font-size="12.7998" style="fill: #000000;text-anchor:start;font-family:sans-serif;font-style:normal;font-weight:normal" x="668" y="464">
    <tspan x="668" y="464">Has</tspan>
  </text>
  <g>
    <rect style="fill: #ffffff" x="1347.53" y="761.008" width="315" height="86"/>
    <rect style="fill: none; fill-opacity:0; stroke-width: 2; stroke: #000000" x="1347.53" y="761.008" width="315" height="86"/>
    <text font-size="12.7998" style="fill: #000000;text-anchor:middle;font-family:sans-serif;font-style:normal;font-weight:normal" x="1505.03" y="783.908">
      <tspan x="1505.03" y="783.908">MapBlock</tspan>
      <tspan x="1505.03" y="799.908">-elemen of map, contais for example</tspan>
      <tspan x="1505.03" y="815.908">terrain type, and whatever the block contains</tspan>
      <tspan x="1505.03" y="831.908">(players, treasure and so on)</tspan>
    </text>
  </g>
  <g>
    <line style="fill: none; fill-opacity:0; stroke-width: 2; stroke: #000000" x1="1389.23" y1="662.258" x2="1497.62" y2="754.691"/>
    <polygon style="fill: #000000" points="1503.32,759.557 1492.47,756.873 1497.62,754.691 1498.96,749.264 "/>
    <polygon style="fill: none; fill-opacity:0; stroke-width: 2; stroke: #000000" points="1503.32,759.557 1492.47,756.873 1497.62,754.691 1498.96,749.264 "/>
  </g>
  <text font-size="12.7998" style="fill: #000000;text-anchor:start;font-family:sans-serif;font-style:normal;font-weight:normal" x="1459.53" y="707.508">
    <tspan x="1459.53" y="707.508">Is made of</tspan>
  </text>
  <g>
    <line style="fill: none; fill-opacity:0; stroke-width: 2; stroke: #000000" x1="787" y1="505.5" x2="544.329" y2="577.964"/>
    <polygon style="fill: #000000" points="537.143,580.11 545.294,572.458 544.329,577.964 548.155,582.04 "/>
    <polygon style="fill: none; fill-opacity:0; stroke-width: 2; stroke: #000000" points="537.143,580.11 545.294,572.458 544.329,577.964 548.155,582.04 "/>
  </g>
  <g>
    <rect style="fill: #ffffff" x="369" y="538.25" width="166" height="85"/>
    <rect style="fill: none; fill-opacity:0; stroke-width: 2; stroke: #000000" x="369" y="538.25" width="166" height="85"/>
    <text font-size="12.7998" style="fill: #000000;text-anchor:middle;font-family:sans-serif;font-style:normal;font-weight:normal" x="452" y="576.65">
      <tspan x="452" y="576.65">Item</tspan>
      <tspan x="452" y="592.65">-superclass of items</tspan>
    </text>
  </g>
  <g>
    <rect style="fill: #ffffff" x="141.125" y="611.75" width="176.75" height="54"/>
    <rect style="fill: none; fill-opacity:0; stroke-width: 2; stroke: #000000" x="141.125" y="611.75" width="176.75" height="54"/>
    <text font-size="12.7998" style="fill: #000000;text-anchor:middle;font-family:sans-serif;font-style:normal;font-weight:normal" x="229.5" y="634.65">
      <tspan x="229.5" y="634.65">Weapon</tspan>
      <tspan x="229.5" y="650.65">-superclass for weapons</tspan>
    </text>
  </g>
  <g>
    <rect style="fill: #ffffff" x="106" y="724.25" width="82" height="43"/>
    <rect style="fill: none; fill-opacity:0; stroke-width: 2; stroke: #000000" x="106" y="724.25" width="82" height="43"/>
    <text font-size="12.7998" style="fill: #000000;text-anchor:middle;font-family:sans-serif;font-style:normal;font-weight:normal" x="147" y="749.65">
      <tspan x="147" y="749.65">Bomb</tspan>
    </text>
  </g>
  <g>
    <rect style="fill: #ffffff" x="219" y="727.25" width="80" height="43"/>
    <rect style="fill: none; fill-opacity:0; stroke-width: 2; stroke: #000000" x="219" y="727.25" width="80" height="43"/>
    <text font-size="12.7998" style="fill: #000000;text-anchor:middle;font-family:sans-serif;font-style:normal;font-weight:normal" x="259" y="752.65">
      <tspan x="259" y="752.65">Gun</tspan>
    </text>
  </g>
  <g>
    <line style="fill: none; fill-opacity:0; stroke-width: 2; stroke: #000000" x1="369" y1="580.75" x2="239.004" y2="609.638"/>
    <polygon style="fill: #000000" points="231.683,611.265 240.36,604.215 239.004,609.638 242.529,613.977 "/>
    <polygon style="fill: none; fill-opacity:0; stroke-width: 2; stroke: #000000" points="231.683,611.265 240.36,604.215 239.004,609.638 242.529,613.977 "/>
  </g>
  <g>
    <line style="fill: none; fill-opacity:0; stroke-width: 2; stroke: #000000" x1="229.5" y1="665.75" x2="154.942" y2="718.618"/>
    <polygon style="fill: #000000" points="148.824,722.957 154.089,713.094 154.942,718.618 159.874,721.251 "/>
    <polygon style="fill: none; fill-opacity:0; stroke-width: 2; stroke: #000000" points="148.824,722.957 154.089,713.094 154.942,718.618 159.874,721.251 "/>
  </g>
  <g>
    <line style="fill: none; fill-opacity:0; stroke-width: 2; stroke: #000000" x1="229.5" y1="665.75" x2="254.789" y2="718.472"/>
    <polygon style="fill: #000000" points="258.033,725.234 249.2,718.38 254.789,718.472 258.216,714.055 "/>
    <polygon style="fill: none; fill-opacity:0; stroke-width: 2; stroke: #000000" points="258.033,725.234 249.2,718.38 254.789,718.472 258.216,714.055 "/>
  </g>
  <text font-size="12.7998" style="fill: #000000;text-anchor:start;font-family:sans-serif;font-style:normal;font-weight:normal" x="284" y="585.25">
    <tspan x="284" y="585.25">Inherits</tspan>
  </text>
  <text font-size="12.7998" style="fill: #000000;text-anchor:start;font-family:sans-serif;font-style:normal;font-weight:normal" x="143" y="690.25">
    <tspan x="143" y="690.25">Inherits</tspan>
  </text>
  <text font-size="12.7998" style="fill: #000000;text-anchor:start;font-family:sans-serif;font-style:normal;font-weight:normal" x="255" y="690.25">
    <tspan x="255" y="690.25">Inherits</tspan>
  </text>
  <g>
    <rect style="fill: #ffffff" x="342.575" y="660.25" width="187.85" height="54"/>
    <rect style="fill: none; fill-opacity:0; stroke-width: 2; stroke: #000000" x="342.575" y="660.25" width="187.85" height="54"/>
    <text font-size="12.7998" style="fill: #000000;text-anchor:middle;font-family:sans-serif;font-style:normal;font-weight:normal" x="436.5" y="683.15">
      <tspan x="436.5" y="683.15">Treasure</tspan>
      <tspan x="436.5" y="699.15">-can be collected in game</tspan>
    </text>
  </g>
  <g>
    <line style="fill: none; fill-opacity:0; stroke-width: 2; stroke: #000000" x1="452" y1="623.25" x2="440.262" y2="651.27"/>
    <polygon style="fill: #000000" points="437.364,658.188 436.616,647.032 440.262,651.27 445.84,650.896 "/>
    <polygon style="fill: none; fill-opacity:0; stroke-width: 2; stroke: #000000" points="437.364,658.188 436.616,647.032 440.262,651.27 445.84,650.896 "/>
  </g>
  <text font-size="12.7998" style="fill: #000000;text-anchor:start;font-family:sans-serif;font-style:normal;font-weight:normal" x="456" y="646.25">
    <tspan x="456" y="646.25">Inherits</tspan>
  </text>
  <g>
    <path style="fill: none; fill-opacity:0; stroke-width: 2; stroke-dasharray: 4; stroke: #000000" d="M 1023.05,642.25 A 831.563,831.563 0 0 0 1338.09,801.613"/>
    <polygon style="fill: #000000" points="1345.35,803.471 1334.45,805.921 1338.07,801.668 1336.85,796.214 "/>
    <polygon style="fill: none; fill-opacity:0; stroke-width: 2; stroke: #000000" points="1345.35,803.471 1334.45,805.921 1338.07,801.668 1336.85,796.214 "/>
  </g>
  <text font-size="12.7998" style="fill: #000000;text-anchor:start;font-family:sans-serif;font-style:normal;font-weight:normal" x="1096.53" y="788.508">
    <tspan x="1096.53" y="788.508">MapBlock could contain</tspan>
  </text>
  <g>
    <path style="fill: none; fill-opacity:0; stroke-width: 2; stroke-dasharray: 4; stroke: #000000" d="M 342.575 714.25 C 372,1092.25 1071.53,1333.51 1342.72,855.477"/>
    <polygon style="fill: #000000" points="1346.42,848.953 1345.84,860.118 1342.72,855.477 1337.14,855.184 "/>
    <polygon style="fill: none; fill-opacity:0; stroke-width: 2; stroke: #000000" points="1346.42,848.953 1345.84,860.118 1342.72,855.477 1337.14,855.184 "/>
  </g>
  <text font-size="12.7998" style="fill: #000000;text-anchor:start;font-family:sans-serif;font-style:normal;font-weight:normal" x="690" y="1118.25">
    <tspan x="690" y="1118.25">MapBlock could contain</tspan>
  </text>
  <g>
    <rect style="fill: #ffffff" x="505" y="306.75" width="184.525" height="70"/>
    <rect style="fill: none; fill-opacity:0; stroke-width: 2; stroke: #000000" x="505" y="306.75" width="184.525" height="70"/>
    <text font-size="12.7998" style="fill: #000000;text-anchor:middle;font-family:sans-serif;font-style:normal;font-weight:normal" x="597.263" y="329.65">
      <tspan x="597.263" y="329.65">Settings</tspan>
      <tspan x="597.263" y="345.65">-used to change and</tspan>
      <tspan x="597.263" y="361.65">storesettings</tspan>
    </text>
  </g>
  <g>
    <line style="fill: none; fill-opacity:0; stroke-width: 2; stroke: #000000" x1="787" y1="478.5" x2="696.26" y2="383.781"/>
    <polygon style="fill: #000000" points="691.072,378.365 701.6,382.127 696.26,383.781 694.379,389.045 "/>
    <polygon style="fill: none; fill-opacity:0; stroke-width: 2; stroke: #000000" points="691.072,378.365 701.6,382.127 696.26,383.781 694.379,389.045 "/>
  </g>
  <text font-size="12.7998" style="fill: #000000;text-anchor:start;font-family:sans-serif;font-style:normal;font-weight:normal" x="742" y="417.75">
    <tspan x="742" y="417.75">Has</tspan>
  </text>
  <g>
    <line style="fill: none; fill-opacity:0; stroke-width: 2; stroke-dasharray: 4; stroke: #000000" x1="709.95" y1="615.25" x2="544.708" y2="602.735"/>
    <polygon style="fill: #000000" points="537.23,602.169 547.579,597.938 544.708,602.735 546.824,607.91 "/>
    <polygon style="fill: none; fill-opacity:0; stroke-width: 2; stroke: #000000" points="537.23,602.169 547.579,597.938 544.708,602.735 546.824,607.91 "/>
  </g>
  <text font-size="12.7998" style="fill: #000000;text-anchor:start;font-family:sans-serif;font-style:normal;font-weight:normal" x="581.571" y="602.482">
    <tspan x="581.571" y="602.482">Actors possess</tspan>
  </text>
</svg>
